<svg fill="none" height="32" viewBox="0 0 32 32" width="32" xmlns="http://www.w3.org/2000/svg" xmlns:xlink="http://www.w3.org/1999/xlink"><clipPath id="a"><path d="m0 0h32v32h-32z"/></clipPath><g clip-path="url(#a)"><path d="m19.5144.00000183c.1505-.00026883.2996.02913187.4387.08652127.1392.0573889.2656.1416419.3722.2479409l11.3393 11.339636c.2148.2148.3354.5061.3354.8098 0 .3038-.1206.595-.3354.8098-1.0995 1.0996-2.4557 1.3471-3.443 1.3471-.4055 0-.7674-.0413-1.0537-.0894l-7.1793 7.1795c.1881.7617.3108 1.538.3665 2.3206.1054 1.6082-.0733 3.8647-1.6494 5.4408-.2148.2147-.506.3353-.8098.3353-.3037 0-.595-.1206-.8097-.3353l-6.4806-6.4785-7.28929 7.2894c-.44671.4467-2.792459 2.0664-3.2391606 1.6196-.4467014-.4467 1.1728806-2.7948 1.6195806-3.2392l7.28924-7.2895-6.47831-6.4807c-.21473-.2148-.33535-.5061-.33535-.8098 0-.3038.12062-.5951.33535-.8099 1.57606-1.5761 3.83247-1.757 5.44059-1.6494.78256.0558 1.55892.1784 2.32055.3666l7.1793-7.17723c-.0577-.34914-.0883-.70221-.0916-1.05607 0-.98506.2474-2.34124 1.3492-3.443136.2147-.214122.5055-.33439776.8087-.33446217z" fill="#5c95ff"/></g></svg>