<svg xmlns="http://www.w3.org/2000/svg" width="278" height="41" viewBox="0 0 278 41"><g fill="none" fill-rule="evenodd"><path fill="#7C7C7C" d="M272.716 35.194l-2.007-5.265-1.984 5.265h3.991zM278 40.732h-3.198l-1.041-2.727h-6.1l-1.026 2.727h-3.194l5.672-13.943h3.215L278 40.732zm-23.22 0h3.05V26.789h-3.05v13.943zm-12.735-13.943h-3.051v13.943h9.745v-2.81h-6.694V26.788zm-13.147 13.943h3.052V26.789h-3.052v13.943zm.083-15.892h2.722l2.005-3.099h-3.378l-1.35 3.099zm-15.134 10.52l-4.729-8.572h-3.113v13.943h3.052v-8.967l4.073 7.521h1.415l4.093-7.539v8.985h3.049V26.789h-3.112l-4.728 8.572zm-18.756-.167l-2.005-5.265-1.987 5.265h3.992zm-.389-8.405l5.67 13.943h-3.193l-1.044-2.727h-6.1l-1.024 2.727h-3.193l5.67-13.943h3.214zm-22.687 13.943h3.052v-4.937h6.161v-2.81h-6.161v-3.387h6.569V26.79h-9.621v13.943zm-19.149-5.538l-2.005-5.265-1.987 5.265h3.992zm-.387-8.405l5.671 13.943h-3.196l-1.043-2.727h-6.1l-1.025 2.727h-3.195l5.672-13.943h3.216zm-16.342 6.96c0-2.272-1.598-4.15-3.623-4.15h-3.275v8.322h3.275c2.025 0 3.623-1.898 3.623-4.172zm3.133 0c0 3.864-2.97 6.983-6.756 6.983h-6.327V26.789h6.327c3.746 0 6.756 3.097 6.756 6.96zm-23.997 1.445l-2.008-5.265-1.984 5.265h3.992zm-.39-8.405l5.673 13.943h-3.196l-1.044-2.727h-6.1l-1.025 2.727h-3.194l5.671-13.943h3.216zM97.66 31.52c0-.95-.53-1.92-1.596-1.92h-3.91v4.004h3.89c1.065 0 1.616-1.091 1.616-2.083zm1.188 4.09l2.54 5.123h-3.275l-2.13-4.297h-3.829v4.297h-3.05V26.789h7.43c2.703 0 4.26 2.293 4.26 4.565 0 1.549-.695 3.262-1.946 4.254zm-22.279-6.2c1.332 0 3.133.496 3.87 1.362l2.048-1.918c-1.392-1.51-3.5-2.336-5.998-2.336-4.3 0-7.493 2.955-7.493 7.19S72.189 41 76.61 41c2.192 0 4.586-.764 5.793-2.025v-6.072h-5.548v2.809h2.497v1.756c-.798.412-1.82.64-2.7.64-2.766 0-4.525-2.064-4.525-4.4 0-2.313 1.741-4.297 4.44-4.297zm-17.18 5.783l-2.006-5.265-1.986 5.265h3.991zm-.387-8.405l5.669 13.943h-3.192l-1.046-2.727h-6.1l-1.025 2.727h-3.195l5.672-13.943h3.217zm-18.779 5.493c-1.885-.535-2.376-1.114-2.376-1.735 0-.68.676-1.114 1.66-1.114 1.085 0 3.236.515 4.667 1.301l1.168-2.48c-1.864-1.32-4.402-1.735-5.957-1.735-3.154 0-4.893 1.861-4.874 4.009 0 1.776.922 3.471 5.672 4.666 1.496.372 2.128.642 2.128 1.572 0 .803-.572 1.342-1.843 1.342-1.492 0-3.316-.539-5.2-1.59L34 38.995C35.965 40.357 38.338 41 40.366 41c3.071 0 5.16-1.548 5.16-4.234 0-2.005-1.085-3.263-5.303-4.484zm79.958-19.697l-2.336-5.722-2.333 5.722h4.669zm-1.421-7.423l5.071 11.957h-1.79l-1.21-2.976h-5.954l-1.21 2.976h-1.807l5.075-11.957h1.825zm-12.111 9.107c-.824.958-2.336 1.469-3.58 1.469-2.442 0-4.478-1.966-4.478-4.572 0-2.619 1.985-4.622 4.37-4.622 1.212 0 2.864.515 3.741 1.435l1.177-1.116c-1.194-1.221-3.195-1.928-4.918-1.928-3.194 0-6.144 2.478-6.144 6.231 0 3.544 2.775 6.186 6.251 6.186 1.808 0 3.634-.71 4.757-1.9l-1.176-1.183zm-17.293 2.85h1.704V5.162h-1.704V17.12zm-8.314-2.496l-7.075-9.46h-1.704v11.956h1.704V7.68l7.075 9.44h1.703V5.162h-1.703v9.461zM64.083 3.443h1.598L67.331 1h-1.878l-1.37 2.444zm-.035 13.676h1.703V5.162h-1.703V17.12zm-5.367-1.556h-6.462v-10.4h-1.703v11.956h8.165v-1.556zM34 11.166c0-3.753 2.951-6.231 6.145-6.231 1.72 0 3.722.707 4.918 1.928l-1.18 1.116c-.877-.92-2.527-1.435-3.738-1.435-2.386 0-4.372 2.003-4.372 4.622 0 2.606 2.036 4.572 4.478 4.572 1.246 0 2.755-.511 3.58-1.469l1.178 1.184c-1.126 1.19-2.95 1.899-4.758 1.899-3.478 0-6.251-2.642-6.251-6.186z"/><path fill="#003C92" d="M4.085 20.212l.137.113A3.014 3.014 0 0 0 6.123 21c1.166 0 2.225-.668 2.762-1.74.232-.462.35-.957.351-1.473V13.61a.27.27 0 0 0-.267-.275H5.305c-1.144 0-1.56-.286-1.56-1.19 0-1.155.865-2.431 2.35-2.431h2.874c.07 0 .139-.029.188-.082a.274.274 0 0 0 .08-.195l-.002-4.79c0-.073.008-.144.02-.234A6.51 6.51 0 0 1 10.927.465a.277.277 0 0 0 .05-.3.266.266 0 0 0-.243-.165h-.003C4.811.145 0 5.246 0 11.37c0 3.446 1.489 6.668 4.085 8.842m13.83-17.424l-.137-.112A3.034 3.034 0 0 0 15.877 2c-1.166 0-2.225.67-2.762 1.743a3.26 3.26 0 0 0-.351 1.47v4.178a.27.27 0 0 0 .267.275h3.665c1.143 0 1.558.287 1.558 1.191 0 1.155-.864 2.431-2.348 2.431H13.03a.256.256 0 0 0-.188.082.27.27 0 0 0-.08.193l.002 4.79c0 .074-.008.146-.02.236a6.506 6.506 0 0 1-1.671 3.946.28.28 0 0 0-.05.302c.041.1.138.163.243.163h.006C17.19 22.857 22 17.756 22 11.63c0-3.445-1.489-6.666-4.085-8.842"/></g></svg>