<svg width="22" height="23" viewBox="0 0 22 23" fill="none" xmlns="http://www.w3.org/2000/svg">
<path fill-rule="evenodd" clip-rule="evenodd" d="M4.085 20.212L4.222 20.325C4.75932 20.7617 5.43061 21 6.123 21C7.289 21 8.348 20.332 8.885 19.26C9.117 18.798 9.235 18.303 9.236 17.787V13.61C9.23666 13.5744 9.23027 13.539 9.21718 13.5058C9.2041 13.4727 9.18458 13.4425 9.15976 13.4169C9.13494 13.3913 9.10531 13.3709 9.07257 13.3569C9.03983 13.3428 9.00463 13.3354 8.969 13.335H5.305C4.161 13.335 3.745 13.049 3.745 12.145C3.745 10.99 4.61 9.714 6.095 9.714H8.969C9.039 9.714 9.108 9.685 9.157 9.632C9.18255 9.60639 9.20277 9.57597 9.2165 9.5425C9.23023 9.50903 9.2372 9.47318 9.237 9.437L9.235 4.647C9.235 4.574 9.243 4.503 9.255 4.413C9.35056 2.94596 9.93987 1.55445 10.927 0.465C10.9637 0.425323 10.988 0.375781 10.9969 0.322476C11.0057 0.269171 10.9988 0.214431 10.977 0.165C10.9572 0.116677 10.9236 0.075261 10.8803 0.0459186C10.8371 0.0165763 10.7862 0.000606108 10.734 0L10.731 0C4.811 0.145 0 5.246 0 11.37C0 14.816 1.489 18.038 4.085 20.212ZM17.915 2.788L17.778 2.676C17.24 2.2404 16.5692 2.00187 15.877 2C14.711 2 13.652 2.67 13.115 3.743C12.8845 4.19874 12.7642 4.70227 12.764 5.213V9.391C12.7633 9.42662 12.7697 9.46203 12.7828 9.49517C12.7959 9.52831 12.8154 9.55853 12.8402 9.5841C12.8651 9.60966 12.8947 9.63006 12.9274 9.64412C12.9602 9.65817 12.9954 9.66561 13.031 9.666H16.696C17.839 9.666 18.254 9.953 18.254 10.857C18.254 12.012 17.39 13.288 15.906 13.288H13.03C12.9947 13.288 12.9598 13.2952 12.9274 13.3093C12.8951 13.3235 12.866 13.3441 12.842 13.37C12.8165 13.3952 12.7963 13.4253 12.7826 13.4584C12.7688 13.4916 12.7618 13.5271 12.762 13.563L12.764 18.353C12.764 18.427 12.756 18.499 12.744 18.589C12.6486 20.0553 12.0596 21.4461 11.073 22.535C11.0363 22.5751 11.012 22.6249 11.0031 22.6786C10.9942 22.7322 11.0011 22.7872 11.023 22.837C11.064 22.937 11.161 23 11.266 23H11.272C17.19 22.857 22 17.756 22 11.63C22 8.185 20.511 4.964 17.915 2.788Z" fill="#003C92"/>
</svg>
